# xmcd
#
# Track frame offsets: 
#        150
#        12072
#        28867
#        41016
#        60376
#        72894
#        88411
#        109448
#        124337
#        142674
#        162033
#
# Disc length: 2451 seconds
#
# Revision: 0
# Processed by: cddbd v1.5.2PL0 Copyright (c) Steve Scherf et al.
# Submitted via: ExactAudioCopy v0.95b3
#
DISCID=9109910b
DTITLE=Greg Brown - Freak Flag
DYEAR=2011
DGENRE=Country
TTITLE0=Someday House
TTITLE1=Where Are You Going When You're Gone 
TTITLE2=Rain and Snow 
TTITLE3=Freak Flag
TTITLE4=Lovinest One
TTITLE5=I Don't Know Anybody In This Town
TTITLE6=Flat Stuff
TTITLE7=Mercy Mercy Mercy
TTITLE8=Let The Mystery Be
TTITLE9=Remember The Sun
TTITLE10=Tenderhearted Child
EXTD=
EXTT0=
EXTT1=
EXTT2=
EXTT3=
EXTT4=
EXTT5=
EXTT6=
EXTT7=
EXTT8=
EXTT9=
EXTT10=
PLAYORDER=
